<svg width="29" height="35" viewBox="0 0 29 35" fill="none" xmlns="http://www.w3.org/2000/svg">
<path fill-rule="evenodd" clip-rule="evenodd" d="M11 0.5C10.1716 0.5 9.5 1.17157 9.5 2C9.5 2.82843 10.1716 3.5 11 3.5H19C19.8284 3.5 20.5 2.82843 20.5 2C20.5 1.17157 19.8284 0.5 19 0.5H11ZM0 20.5C0 12.4919 6.49187 6 14.5 6C22.5081 6 29 12.4919 29 20.5C29 28.5081 22.5081 35 14.5 35C6.49187 35 0 28.5081 0 20.5Z" fill="#3982F7"/>
<path d="M15 20.332L21 14.332" stroke="white" stroke-width="3" stroke-linecap="round" stroke-linejoin="round"/>
</svg>
