<svg width="30" height="32" viewBox="0 0 30 32" fill="none" xmlns="http://www.w3.org/2000/svg">
<path fill-rule="evenodd" clip-rule="evenodd" d="M4.72689 0C3.50862 0 2.52101 0.991508 2.52101 2.2146C2.52101 3.43768 3.50862 4.42919 4.72689 4.42919H5.74363L2.56959 16.4513H2.52101C1.12869 16.4513 0 17.5844 0 18.9822V25.0206C0 27.1372 1.71475 28.853 3.83133 28.853H4.41406V29.1464C4.41406 30.7226 5.69183 32.0004 7.26803 32.0004C8.84424 32.0004 10.122 30.7226 10.122 29.1464V28.853H11.4706H13.6134H21.1758V29.1464C21.1758 30.7226 22.4535 32.0004 24.0298 32.0004C25.606 32.0004 26.8837 30.7226 26.8837 29.1464V28.787C28.6593 28.4532 30 26.8938 30 25.0206V12.1486C30 10.7508 28.8713 9.61767 27.479 9.61767H27.1008V4.42919H27.7941C29.0124 4.42919 30 3.43768 30 2.2146C30 0.991508 29.0124 0 27.7941 0H4.72689ZM6.48169 16.4513L9.65573 4.42919H23.3193V9.61767H23.1933C21.801 9.61767 20.6723 10.7508 20.6723 12.1486V17.2106C20.6723 18.6084 19.5436 19.7415 18.1513 19.7415H12.0626C11.4028 19.7415 10.7693 19.4819 10.2981 19.0182L8.42425 17.1746C7.95302 16.711 7.31952 16.4513 6.65973 16.4513H6.48169Z" fill="#3982F7"/>
</svg>
