<svg width="32" height="35" viewBox="0 0 32 35" fill="none" xmlns="http://www.w3.org/2000/svg">
<path fill-rule="evenodd" clip-rule="evenodd" d="M30.4146 7.76667L31.5343 9.73333V9.75C32.4694 11.4083 31.9112 13.5194 30.2828 14.4833C29.7618 14.7854 29.3297 15.2226 29.0313 15.75C28.5723 16.5473 28.4464 17.4968 28.6813 18.3884C28.9162 19.2799 29.4926 20.0399 30.2828 20.5C31.073 20.9601 31.6494 21.7201 31.8843 22.6117C32.1192 23.5032 31.9933 24.4527 31.5343 25.25L30.3487 27.25C29.3957 28.908 27.2976 29.4743 25.6554 28.5167C25.153 28.226 24.5872 28.0657 24.0087 28.05C23.0946 28.0455 22.2166 28.4111 21.5702 29.0653C20.9238 29.7195 20.5626 30.6081 20.567 31.5333C20.5579 33.4506 19.0197 35 17.1253 35H14.8692C12.9684 35 11.4275 33.4405 11.4275 31.5167C11.4215 30.9297 11.2624 30.3548 10.9664 29.85C10.515 29.0513 9.76704 28.4683 8.88882 28.2304C8.0106 27.9926 7.07489 28.1196 6.28967 28.5833C5.49091 29.0365 4.54665 29.1488 3.66585 28.8955C2.78504 28.6421 2.0403 28.0439 1.59643 27.2333L0.460171 25.25C-0.484558 23.593 0.0755467 21.4747 1.7117 20.5167C2.77658 19.8944 3.43257 18.7445 3.43257 17.5C3.43257 16.2555 2.77658 15.1056 1.7117 14.4833C0.0734663 13.5188 -0.486028 11.3954 0.460171 9.73333L1.6623 7.73333C2.60964 6.06924 4.70907 5.49516 6.35554 6.45C6.85428 6.74959 7.42235 6.91057 8.00229 6.91667C9.88396 6.91686 11.417 5.38757 11.444 3.48333C11.4396 2.56103 11.7985 1.67498 12.4414 1.02125C13.0842 0.367514 13.9579 -1.0067e-05 14.8692 2.95883e-07H17.1253C18.0555 -0.000387432 18.9462 0.380301 19.5945 1.05534C20.2429 1.73039 20.5937 2.64229 20.567 3.58333C20.573 4.17029 20.7321 4.74522 21.0281 5.25C21.4882 6.04415 22.2415 6.62045 23.122 6.85182C24.0024 7.08318 24.9376 6.95061 25.7213 6.48333C27.3678 5.52849 29.4672 6.10257 30.4146 7.76667ZM16.0102 22.4673C18.7212 22.4673 20.9189 20.2431 20.9189 17.4993C20.9189 14.7555 18.7212 12.5312 16.0102 12.5312C13.2992 12.5312 11.1016 14.7555 11.1016 17.4993C11.1016 20.2431 13.2992 22.4673 16.0102 22.4673Z" fill="white"/>
</svg>
